<svg width="44" height="44" viewBox="0 0 44 44" fill="none" xmlns="http://www.w3.org/2000/svg">
<g clip-path="url(#clip0_601_3005)">
<path d="M36.6667 14.6667H7.33333C6.32081 14.6667 5.5 15.4875 5.5 16.5V20.1667C5.5 21.1792 6.32081 22 7.33333 22H36.6667C37.6792 22 38.5 21.1792 38.5 20.1667V16.5C38.5 15.4875 37.6792 14.6667 36.6667 14.6667Z" stroke="black" stroke-width="3" stroke-linecap="round" stroke-linejoin="round"/>
<path d="M22 14.6667V38.5" stroke="black" stroke-width="3" stroke-linecap="round" stroke-linejoin="round"/>
<path d="M34.8333 22V34.8333C34.8333 35.8058 34.447 36.7384 33.7594 37.4261C33.0717 38.1137 32.1391 38.5 31.1667 38.5H12.8333C11.8609 38.5 10.9282 38.1137 10.2406 37.4261C9.55296 36.7384 9.16666 35.8058 9.16666 34.8333V22" stroke="black" stroke-width="3" stroke-linecap="round" stroke-linejoin="round"/>
<path d="M13.75 14.6667C12.5344 14.6667 11.3686 14.1838 10.5091 13.3242C9.64954 12.4647 9.16666 11.2989 9.16666 10.0833C9.16666 8.86775 9.64954 7.70196 10.5091 6.84242C11.3686 5.98288 12.5344 5.49999 13.75 5.49999C15.5186 5.46918 17.2517 6.3273 18.7233 7.96245C20.195 9.59761 21.3368 11.9339 22 14.6667C22.6632 11.9339 23.805 9.59761 25.2766 7.96245C26.7483 6.3273 28.4814 5.46918 30.25 5.49999C31.4656 5.49999 32.6314 5.98288 33.4909 6.84242C34.3504 7.70196 34.8333 8.86775 34.8333 10.0833C34.8333 11.2989 34.3504 12.4647 33.4909 13.3242C32.6314 14.1838 31.4656 14.6667 30.25 14.6667" stroke="black" stroke-width="3" stroke-linecap="round" stroke-linejoin="round"/>
</g>
<defs>
<clipPath id="clip0_601_3005">
<rect width="44" height="44" fill="white"/>
</clipPath>
</defs>
</svg>
