<svg width="164" height="41" viewBox="0 0 164 41" fill="none" xmlns="http://www.w3.org/2000/svg">
<g filter="url(#filter0_d_13701_100)">
<path d="M56.5371 14.1687H55.44C55.28 13.2785 55.1086 12.5491 54.9257 11.9804C54.7657 11.4116 54.5143 10.9665 54.1714 10.6451C53.8286 10.3236 53.3257 10.1011 52.6629 9.97744C52.0229 9.82908 51.1429 9.7549 50.0229 9.7549H44.5714V19.1389H48.6171C49.6 19.1389 50.3543 19.04 50.88 18.8422C51.4057 18.6444 51.76 18.2858 51.9429 17.7665C52.1486 17.2225 52.2514 16.456 52.2514 15.4669H53.4171V24.072H52.2514C52.2514 23.0582 52.1486 22.304 51.9429 21.8094C51.76 21.3149 51.4057 20.9934 50.88 20.8451C50.3543 20.672 49.6 20.5854 48.6171 20.5854H44.5714V28.3745C44.5714 29.6356 44.8343 30.4516 45.36 30.8225C45.8857 31.1687 46.8114 31.3418 48.1371 31.3418V32.4545H38.0914V31.3418C39.0286 31.3418 39.7257 31.2676 40.1829 31.1193C40.6629 30.9709 40.9829 30.6742 41.1429 30.2291C41.3257 29.7593 41.4171 29.0669 41.4171 28.152V12.2771C41.4171 10.9913 41.1657 10.1629 40.6629 9.79199C40.1829 9.39635 39.3257 9.19854 38.0914 9.19854V8.08581H56.3314L56.5371 14.1687ZM80.0997 19.9178C80.0997 22.5142 79.654 24.7891 78.7626 26.7425C77.894 28.6713 76.6483 30.1796 75.0254 31.2676C73.4026 32.3556 71.4597 32.8996 69.1969 32.8996C66.934 32.8996 64.9797 32.3927 63.334 31.3789C61.7111 30.3651 60.454 28.9185 59.5626 27.0393C58.694 25.1353 58.2597 22.8727 58.2597 20.2516C58.2597 17.7294 58.694 15.5287 59.5626 13.6494C60.454 11.7454 61.7111 10.2742 63.334 9.23563C64.9797 8.17235 66.934 7.64072 69.1969 7.64072C71.4826 7.64072 73.4369 8.15999 75.0597 9.19854C76.6826 10.2124 77.9283 11.6465 78.7969 13.5011C79.6654 15.3309 80.0997 17.4698 80.0997 19.9178ZM76.4997 20.0291C76.4997 17.8036 76.1911 15.8873 75.574 14.28C74.9569 12.648 74.0883 11.3993 72.9683 10.5338C71.8711 9.64363 70.5797 9.19854 69.094 9.19854C66.8769 9.19854 65.1169 10.1629 63.814 12.0916C62.5111 13.9956 61.8597 16.6414 61.8597 20.0291C61.8597 23.5156 62.4654 26.2727 63.6769 28.3004C64.9111 30.328 66.7626 31.3418 69.2311 31.3418C71.6769 31.3418 73.494 30.3898 74.6826 28.4858C75.894 26.5818 76.4997 23.7629 76.4997 20.0291ZM100.578 14.1687C100.578 15.5534 100.281 16.6785 99.6866 17.544C99.1151 18.4094 98.3837 19.0894 97.4923 19.584C96.6237 20.0538 95.7209 20.4124 94.7837 20.6596V20.808C95.1723 21.0553 95.6066 21.488 96.0866 22.1062C96.5894 22.6996 97.2294 23.5898 98.0066 24.7767C98.7837 25.9389 99.8009 27.4967 101.058 29.4502C101.607 30.2662 102.132 30.7854 102.635 31.008C103.161 31.2305 103.812 31.3418 104.589 31.3418V32.4545H98.9323C97.9951 30.9214 97.2066 29.648 96.5666 28.6342C95.9494 27.5956 95.4237 26.7302 94.9894 26.0378C94.5551 25.3207 94.1666 24.6902 93.8237 24.1462C93.4809 23.6022 93.138 23.0582 92.7951 22.5142C92.4523 21.9454 92.1323 21.5993 91.8351 21.4756C91.5609 21.352 91.1151 21.2902 90.498 21.2902H89.538V27.8553C89.538 28.8691 89.618 29.6356 89.778 30.1549C89.938 30.6494 90.258 30.9709 90.738 31.1193C91.218 31.2676 91.9494 31.3418 92.9323 31.3418V32.4545H83.298V31.3418C84.1666 31.3418 84.818 31.2676 85.2523 31.1193C85.6866 30.9709 85.9723 30.6494 86.1094 30.1549C86.2694 29.6604 86.3494 28.8938 86.3494 27.8553V11.9433C86.3494 11.2509 86.2809 10.7069 86.1437 10.3113C86.0294 9.91563 85.7551 9.63126 85.3209 9.45817C84.8866 9.28508 84.2123 9.19854 83.298 9.19854V8.08581H91.7323C93.4466 8.08581 94.9666 8.27126 96.2923 8.64217C97.6409 8.98835 98.6923 9.60653 99.4466 10.4967C100.201 11.3622 100.578 12.5862 100.578 14.1687ZM89.538 9.64363V19.8436L90.8409 19.8807C92.738 19.7818 94.258 19.3244 95.4009 18.5084C96.5437 17.6676 97.1151 16.2705 97.1151 14.3171C97.1151 12.8334 96.6923 11.6713 95.8466 10.8305C95.0009 9.96508 93.6523 9.53235 91.8009 9.53235C91.0237 9.53235 90.2694 9.56944 89.538 9.64363ZM133.567 32.4545H124.447V31.3418C125.338 31.3418 126.001 31.2553 126.436 31.0822C126.87 30.9091 127.156 30.5876 127.293 30.1178C127.43 29.6233 127.498 28.9309 127.498 28.0407V12.0545H127.361L119.373 32.4545H118.55L110.458 12.0916H110.321V27.0393C110.321 28.3004 110.401 29.24 110.561 29.8582C110.721 30.4764 111.018 30.8844 111.453 31.0822C111.91 31.2553 112.573 31.3418 113.441 31.3418V32.4545H105.384V31.3418C106.321 31.3418 107.018 31.2553 107.476 31.0822C107.933 30.8844 108.241 30.4764 108.401 29.8582C108.561 29.24 108.641 28.3004 108.641 27.0393V12.6109C108.641 11.6713 108.561 10.9665 108.401 10.4967C108.241 10.0022 107.933 9.66835 107.476 9.49526C107.041 9.29744 106.367 9.19854 105.453 9.19854V8.08581H112.447L119.681 26.7425H119.818L127.018 8.08581H133.533V9.19854C132.733 9.19854 132.116 9.29744 131.681 9.49526C131.247 9.66835 130.95 10.0022 130.79 10.4967C130.63 10.9665 130.55 11.6589 130.55 12.5738V28.0407C130.55 28.9309 130.63 29.6233 130.79 30.1178C130.95 30.5876 131.247 30.9091 131.681 31.0822C132.116 31.2553 132.744 31.3418 133.567 31.3418V32.4545ZM159.574 32.4545H150.351V31.3418C150.694 31.3418 151.049 31.3171 151.414 31.2676C151.78 31.2182 152.089 31.0945 152.34 30.8967C152.591 30.6989 152.717 30.3898 152.717 29.9694C152.717 29.6974 152.671 29.3884 152.58 29.0422C152.511 28.6713 152.363 28.2138 152.134 27.6698L150.797 24.3316H142.019L140.477 28.2633C140.385 28.56 140.294 28.8567 140.202 29.1534C140.134 29.4254 140.099 29.7345 140.099 30.0807C140.099 30.6 140.282 30.9462 140.648 31.1193C141.014 31.2676 141.597 31.3418 142.397 31.3418V32.4545H135.197V31.3418C135.837 31.3418 136.351 31.2305 136.739 31.008C137.128 30.7854 137.505 30.3404 137.871 29.6727C138.237 28.9804 138.694 27.9294 139.242 26.52L146.511 7.90035H147.917L156.043 28.0407C156.546 29.2524 157.026 30.1054 157.483 30.6C157.963 31.0945 158.66 31.3418 159.574 31.3418V32.4545ZM150.283 22.848L146.511 12.4625H146.408L142.534 22.848H150.283Z" fill="white"/>
<path d="M4.71429 6.95456H6.14287V8.50001H4.71429V6.95456ZM10.4286 8.50001H9.00001V6.95456H10.4286V8.50001ZM14.7143 8.50001H13.2857V6.95456H14.7143V8.50001ZM19 8.50001H17.5714V6.95456H19V8.50001ZM23.2857 8.50001H21.8572V6.95456H23.2857V8.50001ZM27.5714 8.50001H26.1429V6.95456H27.5714V8.50001ZM4.71429 11.5909H6.14287V13.1364H4.71429V11.5909ZM4.71429 16.2273H6.14287V17.7727H4.71429V16.2273ZM4.71429 20.8637H6.14287V22.4091H4.71429V20.8637ZM4.71429 25.5H6.14287V27.0455H4.71429V25.5ZM4.71429 30.1364H6.14287V31.6818H4.71429V30.1364ZM9.00001 16.2273H10.4286V17.7727H9.00001V16.2273ZM14.7143 17.7727H13.2857V16.2273H14.7143V17.7727Z" stroke="white"/>
<path d="M25.4286 13.9091V10.8182H28.2857V13.9091H25.4286Z" stroke="white" stroke-width="0.1"/>
<path d="M19.7143 15.4546H16.8571V18.5455H19.7143V15.4546Z" stroke="white" stroke-width="0.1"/>
<path d="M21.1429 18.5455V15.4546H24V18.5455H21.1429Z" stroke="white" stroke-width="0.1"/>
<path d="M25.4286 18.5455V15.4546H28.2857V18.5455H25.4286Z" stroke="white" stroke-width="0.1"/>
<path d="M19.7143 20.0909H16.8571V23.1818H19.7143V20.0909Z" stroke="white" stroke-width="0.1"/>
<path d="M24 20.0909H21.1429V23.1818H24V20.0909Z" stroke="white" stroke-width="0.1"/>
<path d="M28.2857 20.0909H25.4286V23.1818H28.2857V20.0909Z" stroke="white" stroke-width="0.1"/>
<path d="M15.4286 24.7273H12.5714V27.8182H15.4286V24.7273Z" stroke="white" stroke-width="0.1"/>
<path d="M19.7143 24.7273H16.8571V27.8182H19.7143V24.7273Z" stroke="white" stroke-width="0.1"/>
<path d="M24 24.7273H21.1429V27.8182H24V24.7273Z" stroke="white" stroke-width="0.1"/>
<path d="M28.2857 24.7273H25.4286V27.8182H28.2857V24.7273Z" stroke="white" stroke-width="0.1"/>
<path d="M11.1428 29.3636H8.28571V32.4546H11.1428V29.3636Z" stroke="white" stroke-width="0.1"/>
<path d="M15.4286 29.3636H12.5714V32.4546H15.4286V29.3636Z" stroke="white" stroke-width="0.1"/>
<path d="M19.7143 29.3636H16.8571V32.4546H19.7143V29.3636Z" stroke="white" stroke-width="0.1"/>
<path d="M24 29.3636H21.1429V32.4546H24V29.3636Z" stroke="white" stroke-width="0.1"/>
<path d="M28.2857 29.3636H25.4286V32.4546H28.2857V29.3636Z" stroke="white" stroke-width="0.1"/>
<path d="M14.7143 13.1364H13.2857V11.5909H14.7143V13.1364ZM17.5714 11.5909H19V13.1364H17.5714V11.5909ZM23.2857 13.1364H21.8571V11.5909H23.2857V13.1364ZM10.4286 27.0455H9V25.5H10.4286V27.0455ZM10.4286 22.4091H9V20.8636H10.4286V22.4091ZM14.7143 22.4091H13.2857V20.8636H14.7143V22.4091Z" stroke="#C4C4C4"/>
<path d="M9.20922 11.8172C9.48816 11.5155 9.94042 11.5155 10.2194 11.8172C10.4983 12.119 10.4983 12.6083 10.2194 12.91C9.94042 13.2118 9.48816 13.2118 9.20922 12.91C8.93026 12.6083 8.93026 12.119 9.20922 11.8172Z" stroke="#36E347"/>
</g>
<defs>
<filter id="filter0_d_13701_100" x="0" y="0" width="168" height="42" filterUnits="userSpaceOnUse" color-interpolation-filters="sRGB">
<feFlood flood-opacity="0" result="BackgroundImageFix"/>
<feColorMatrix in="SourceAlpha" type="matrix" values="0 0 0 0 0 0 0 0 0 0 0 0 0 0 0 0 0 0 127 0" result="hardAlpha"/>
<feOffset dy="4"/>
<feGaussianBlur stdDeviation="2"/>
<feComposite in2="hardAlpha" operator="out"/>
<feColorMatrix type="matrix" values="0 0 0 0 0 0 0 0 0 0 0 0 0 0 0 0 0 0 0.25 0"/>
<feBlend mode="normal" in2="BackgroundImageFix" result="effect1_dropShadow_13701_100"/>
<feBlend mode="normal" in="SourceGraphic" in2="effect1_dropShadow_13701_100" result="shape"/>
</filter>
</defs>
</svg>
